<svg width="250" height="385" viewBox="0 0 250 385" fill="none" xmlns="http://www.w3.org/2000/svg">
    <path d="M15.0591 85.6089C12.8182 82.9859 10.6496 80.3629 8.55325 77.5706C7.03523 75.7091 3.56547 77.8245 4.43291 80.0244C8.77012 91.1088 14.4085 101.347 19.5408 112.008C20.9866 114.631 22.1432 117.254 23.372 119.877C23.9503 121.062 24.5286 122.416 25.0346 123.77C25.0346 123.77 25.5406 124.616 25.5406 124.87C25.9744 125.631 26.2635 126.477 26.5527 127.07C28.8658 132.485 30.9622 137.9 32.6247 143.485C33.3476 146.192 34.1428 148.731 34.6488 151.523C35.0825 152.961 35.2271 154.315 35.5162 155.669C35.5162 155.669 35.5162 155.838 35.5162 156.092C35.6608 156.938 35.6608 157.869 35.8777 158.715C36.1668 161.592 36.1668 164.469 36.1668 167.176C36.1668 168.699 36.0222 170.138 35.8054 171.492C35.8054 171.661 35.8054 172.507 35.5885 172.761C35.5885 173.522 35.4439 174.199 35.4439 174.876C35.0825 177.922 34.2873 180.968 33.2753 183.845C32.9862 185.368 32.3356 186.722 31.8296 188.33C31.7573 188.499 31.7573 188.668 31.7573 188.753C31.4682 188.837 31.4682 188.922 31.3959 189.176C31.1067 190.107 30.673 191.122 30.167 192.137C27.4201 198.399 24.0226 204.406 21.0589 210.414C15.0591 222.26 9.70984 234.613 5.5895 247.305C1.97516 259.405 0.0957031 272.436 0.0957031 284.958C0.0957031 297.904 1.61373 310.342 6.45694 322.527C11.011 334.373 18.5288 345.372 26.4081 355.103C28.649 358.064 31.3959 360.603 34.1428 363.141C36.1668 364.749 39.998 363.141 38.9137 360.264C34.1428 349.011 26.9141 338.688 22.1432 327.773C17.3 316.942 13.3242 304.758 12.4567 293.42C11.3002 280.812 12.6736 268.713 16.6494 256.697C18.5288 250.521 20.2637 246.459 23.0106 240.706C25.7575 234.783 28.649 228.86 31.9019 223.106C38.48 210.752 46.4315 199.245 51.2025 185.876C55.3228 173.607 54.8168 159.73 51.853 147.292C46.2869 123.6 29.7333 104.562 15.0591 85.6089Z" fill="#72148C"/>
    <path d="M159.995 161.677C155.513 152.284 149.73 143.569 145.104 134.177C144.887 133.585 144.525 132.993 144.236 132.485C144.236 132.485 143.947 131.554 143.73 131.385C143.369 130.37 142.863 129.185 142.429 128.254C141.417 125.716 140.55 123.093 139.971 120.554C139.538 119.624 139.393 118.693 139.248 117.678C139.393 117.678 139.032 116.662 139.032 116.493C139.032 115.901 138.887 115.224 138.887 114.801C138.887 113.531 138.887 112.347 138.887 111.247C138.887 110.655 138.887 110.062 138.887 109.385V109.216C139.032 108.793 139.032 108.539 139.032 108.201C140.333 101.77 142.285 97.6241 145.393 91.955C147.128 89.1627 148.646 86.2859 150.525 83.6629C152.116 80.9552 153.344 78.163 155.368 75.7938C158.188 72.4939 153.634 68.094 150.453 71.1401C148.646 73.0016 146.622 74.44 144.67 76.1323C142.285 77.9092 140.477 79.8553 138.526 82.0552C134.622 86.2013 131.297 90.9396 129.056 96.1011C126.237 101.262 124.647 107.439 124.43 113.193C124.43 118.608 125.803 124.193 127.393 129.185C130.791 139.846 136.646 149.323 142.285 159.054C144.67 163.538 147.128 168.107 149.441 172.676C151.537 177.415 153.995 182.999 156.308 188.499C165.344 211.006 171.994 234.529 173.44 258.305C174.886 283.182 170.476 306.873 165.055 330.988C163.248 338.603 161.224 345.88 159.344 353.326C157.537 360.772 156.091 368.049 154.79 375.664C154.356 377.356 154.935 379.049 156.525 379.895C158.26 380.741 161.007 380.402 161.874 378.456C171.488 355.526 178.211 331.411 182.331 306.958C184.355 294.52 185.801 281.912 186.018 269.305C186.163 256.698 184.789 244.259 182.621 231.821C178.356 207.791 170.259 183.93 159.995 161.677Z" fill="#72148C"/>
    <path d="M113.152 262.366C105.562 271.673 93.0565 257.035 87.129 243.92C85.6833 240.62 81.7075 243.666 83.081 246.882C88.0688 259.828 90.9602 274.212 93.7071 288.089C96.5986 302.388 98.9118 316.603 100.791 331.157C102.815 345.456 104.406 359.925 106.285 374.31C107.225 380.656 110.478 393.178 112.14 376.171C114.526 351.21 115.538 288.935 118.212 265.666C118.574 261.435 115.682 259.235 113.152 262.366Z" fill="#72148C"/>
    <path d="M244.136 0.14896C241.75 0.572028 239.726 0.572028 237.558 0.572028C234.666 0.402801 231.63 0.995096 228.956 1.33355C223.895 1.92584 219.125 2.51814 214.137 3.11043C212.908 3.19505 211.751 3.36427 210.595 3.44889C210.016 3.5335 209.366 3.5335 208.788 3.70273C208.643 3.70273 208.498 3.70273 208.498 3.70273C208.354 3.70273 208.354 3.70273 207.92 3.70273C205.39 3.78734 203.005 3.78734 200.402 3.87196C196.788 3.87196 193.318 4.21041 189.921 4.63348C182.547 5.47961 174.957 7.51034 168.379 11.6564C166.717 12.7564 165.199 14.1102 163.681 15.464C162.885 15.9717 162.379 16.564 161.801 17.3255C161.584 17.664 161.223 17.9178 161.078 18.2563C160.789 18.5101 158.982 20.71 159.994 19.6101C158.693 21.2177 157.536 23.4177 156.813 25.4484C156.09 27.3099 156.091 29.256 155.801 31.1175C155.512 31.9636 155.368 32.7252 155.368 33.4021C154.934 37.0405 159.705 38.1404 160.789 34.6713C160.789 34.1636 160.861 33.7405 161.078 33.3175C161.078 33.1482 161.584 32.3021 161.223 32.6406C161.946 31.9636 162.452 31.3714 163.102 30.5252C163.102 30.5252 163.391 29.9329 163.391 29.7637C163.681 29.5945 164.042 29.256 164.187 29.0868C164.331 28.7483 164.693 28.4945 164.837 28.156C165.054 28.0714 165.199 27.9868 165.199 27.9022C164.548 28.3253 164.693 28.2407 165.921 27.3945C166.066 27.1407 166.211 26.9715 166.5 26.8868C166.5 26.7176 166.934 26.5484 167.078 26.3792C167.801 25.8715 168.452 25.4484 169.102 25.11C170.476 24.1792 171.994 23.4177 173.584 22.8254C173.584 22.8254 173.584 22.8254 173.728 22.8254C174.307 22.4869 174.596 22.4023 174.957 22.3177C175.825 22.0639 176.475 21.7254 177.343 21.4716C179.078 21.1331 180.813 20.6254 182.547 20.2024C185.8 19.6101 189.053 19.1024 192.306 18.9332C192.812 18.8485 193.896 18.8485 194.113 18.8485C194.908 18.7639 195.631 18.7639 196.21 18.7639C197.728 18.7639 199.39 18.7639 200.691 18.7639C206.185 18.8486 211.751 18.2563 217.245 17.7486C221.727 17.1563 226.498 16.2255 231.052 15.1256C232.714 14.7025 234.594 14.2794 236.257 13.7717C234.594 18.2563 232.642 22.5715 230.546 27.3099C226.57 35.7713 222.522 44.148 217.317 51.6786C216.884 52.1863 216.595 52.5247 216.378 53.0324C216.378 53.117 216.233 53.2016 216.233 53.3709C215.872 53.8785 214.137 56.0785 215.366 54.6401C214.932 55.0631 214.643 55.4016 214.281 55.9093C212.836 57.6862 211.39 59.2938 209.8 60.7322C209.004 61.5784 208.426 62.1707 207.703 62.763C207.559 62.9322 207.486 63.0168 207.053 63.2706C207.053 63.2706 206.619 63.6937 206.474 63.8629C204.667 65.0475 203.005 66.1475 201.125 67.1629C200.764 67.3321 200.185 67.5859 199.824 67.7552C199.679 67.7552 199.39 67.9244 199.173 68.0936C198.451 68.2628 197.872 68.5167 197.294 68.6013C195.848 68.9398 194.764 69.1936 193.318 69.3628C193.101 69.3628 192.957 69.3628 192.812 69.3628C192.595 69.3628 192.595 69.3628 192.451 69.3628C191.872 69.4474 191.294 69.4474 190.427 69.4474C188.981 69.3628 187.535 69.3628 185.945 69.1936C184.788 69.0244 183.704 68.9398 182.62 68.7705C182.041 68.6859 181.246 68.6013 180.813 68.5167C180.668 68.3475 180.307 68.2628 179.945 68.2628C177.849 67.7552 175.969 66.8244 174.307 66.0629C174.09 66.0629 173.945 65.9783 173.801 65.8937C173.801 65.8937 173.439 65.7244 173.295 65.4706C173.078 65.4706 173.078 65.386 172.933 65.3014C172.933 65.2168 172.933 65.2168 172.933 65.2168V64.9629C172.933 64.7091 172.933 64.6245 173.078 64.5399C173.078 64.1168 173.439 63.6937 173.656 63.3553C173.656 63.3553 173.945 62.8476 174.09 62.763C175.174 61.5784 176.331 60.563 177.415 59.6323C177.777 59.463 177.777 59.3784 177.777 59.3784C178.283 59.04 178.861 58.5323 179.295 58.1938C178.933 58.2784 179.15 58.1938 179.656 57.8554C180.162 57.4323 180.74 57.0939 181.246 56.7554C183.198 55.317 185.222 53.8785 187.246 52.694C195.415 47.7018 203.944 43.3865 212.04 38.225C214.932 36.2789 212.763 31.2021 209.655 32.7252C199.824 37.4635 189.776 41.8634 179.801 46.5172C173.078 49.7325 165.199 54.3862 163.681 63.4399C163.102 66.7398 164.187 69.7859 165.705 72.2397C164.548 70.209 166.211 73.0012 166.5 73.5935C167.078 74.2704 167.801 75.0319 168.235 75.6242C166.5 73.932 169.464 76.8934 169.464 76.8088C170.042 77.3165 170.476 77.7396 171.054 78.078C176.331 81.6318 182.764 83.4933 188.909 83.7471C195.848 84.001 202.788 82.4779 208.932 78.5857C216.522 74.1012 222.594 66.7398 227.365 58.7015C231.919 50.6632 235.606 41.6096 239.076 32.6406C242.256 24.0946 245.22 15.8871 248.834 8.27186C250.497 4.29502 248.328 -0.697175 244.136 0.14896Z" fill="#72148C"/>
    <path d="M148.645 58.7013C151.464 57.8551 150.958 53.3706 147.994 53.5398C143.657 53.5398 139.031 52.4399 135.272 50.2399C131.658 48.1246 128.766 44.8246 126.308 41.1017C126.092 40.7632 125.802 40.3401 125.73 39.9171C125.586 39.8325 125.08 38.8171 125.08 38.8171C124.429 37.5479 123.923 36.5325 123.634 35.4325C123.2 34.0787 122.549 32.8941 122.405 31.6249C122.26 31.4557 121.899 30.2711 121.899 30.2711C121.899 29.6788 121.754 29.0865 121.537 28.4942C121.393 27.3943 121.248 26.2097 121.031 24.9405C121.031 24.3482 121.031 23.5867 120.815 22.9097C120.815 22.7405 120.815 21.3867 120.815 21.3867C120.815 20.3713 120.815 19.356 121.031 18.3406C121.537 18.5945 122.043 18.9329 122.549 19.1021C122.911 19.2714 123.2 19.4406 123.489 19.6098C123.706 19.6944 124.357 20.0329 124.357 20.2021C127.61 22.4867 130.356 25.4482 133.103 28.4942C134.043 29.5942 135.489 31.4557 136.718 33.0634C138.163 34.8403 139.32 36.6171 140.549 38.394C142.428 41.4401 144.236 44.8246 146.621 47.7015C147.85 49.1399 150.452 47.8707 150.452 45.7554C150.597 41.2709 148.573 37.294 146.621 33.4864C144.236 29.0865 141.416 24.9405 138.525 21.2175C133.176 14.2792 125.152 6.57934 116.477 7.67932C114.526 7.93316 113.369 9.96388 112.935 12.2484C110.622 24.2636 113.152 37.4633 119.875 47.0246C123.2 51.8476 127.393 55.4859 132.236 57.6859C137.513 60.1397 143.079 60.3089 148.645 58.7013Z" fill="#72148C"/>
</svg>
